<?xml version="1.0" encoding="UTF-8"?>
<!DOCTYPE svg PUBLIC "-//W3C//DTD SVG 1.1//EN" "http://www.w3.org/Graphics/SVG/1.1/DTD/svg11.dtd">
<!-- Creator: CorelDRAW -->
<svg xmlns="http://www.w3.org/2000/svg" xml:space="preserve" width="133.576mm" height="133.576mm" version="1.1" style="shape-rendering:geometricPrecision; text-rendering:geometricPrecision; image-rendering:optimizeQuality; fill-rule:evenodd; clip-rule:evenodd"
viewBox="0 0 1274.62 1274.62"
 xmlns:xlink="http://www.w3.org/1999/xlink"
 xmlns:xodm="http://www.corel.com/coreldraw/odm/2003">
 <defs>
  <style type="text/css">
   <![CDATA[
    .fil2 {fill:white}
    .fil0 {fill:url(#id3)}
    .fil1 {fill:url(#id4)}
   ]]>
  </style>
     <clipPath id="id0">
      <path d="M-0 0l1274.62 0 0 1274.62 -1274.62 0 0 -1274.62z"/>
     </clipPath>
     <clipPath id="id1">
      <path d="M335.29 335.29l604.04 0 0 604.04 -604.04 0 0 -604.04z"/>
     </clipPath>
     <clipPath id="id2">
      <path d="M533.27 531.83l455.69 0 0 420.88 -455.69 0 0 -420.88z"/>
     </clipPath>
  <radialGradient id="id3" gradientUnits="userSpaceOnUse" gradientTransform="matrix(7.78583E-06 1 -1 5.83937E-06 1275 0)" cx="637.31" cy="637.31" r="490.24" fx="637.31" fy="637.31">
   <stop offset="0" style="stop-opacity:1; stop-color:#BA0000"/>
   <stop offset="0.470588" style="stop-opacity:1; stop-color:#C20000"/>
   <stop offset="0.721569" style="stop-opacity:1; stop-color:#E00007"/>
   <stop offset="0.898039" style="stop-opacity:1; stop-color:#EF0205"/>
   <stop offset="1" style="stop-opacity:1; stop-color:#FD0403"/>
  </radialGradient>
  <radialGradient id="id4" gradientUnits="userSpaceOnUse" gradientTransform="matrix(1.02035 -0.0111316 0.0111316 1.02035 -20 -6)" cx="637.31" cy="637.31" r="227.68" fx="637.31" fy="637.31">
   <stop offset="0" style="stop-opacity:1; stop-color:#FFD724"/>
   <stop offset="0.658824" style="stop-opacity:1; stop-color:#FAA91A"/>
   <stop offset="1" style="stop-opacity:1; stop-color:#F57B11"/>
  </radialGradient>
 </defs>
 <g id="Camada_x0020_1">
  <metadata id="CorelCorpID_0Corel-Layer"/>
  <g id="_1787500145760">
   <g>
    <g style="clip-path:url(#id0)">
     <image x="-0" y="0" width="1274.62" height="1274.62" xlink:href="Logo colorida_Images\Logo colorida_ImgID1.png"/>
    </g>
   </g>
   <path class="fil0" d="M719.25 327.7c0,1.47 -0.04,2.94 -0.12,4.39l0.2 -0.16c2.69,-2.15 5.37,-4.29 8.06,-6.44 15.3,-12.22 30.6,-24.45 45.91,-36.67 10.99,-8.78 21.98,-17.56 32.97,-26.34 0.22,5.35 0.44,10.69 0.66,16.04 0.37,8.82 0.73,17.64 1.1,26.46 0.52,12.47 1.03,24.95 1.55,37.42 0.43,10.34 0.98,20.74 1.29,31.07 0.12,3.91 -0.02,7.52 -0.48,11.03 3.3,-1.81 6.81,-3.3 10.64,-4.55 3.27,-1.07 6.54,-2.14 9.8,-3.21 18.61,-6.1 37.22,-12.19 55.84,-18.29 13.37,-4.38 26.73,-8.76 40.1,-13.13 -1.66,5.09 -3.33,10.17 -4.99,15.25 -2.74,8.39 -5.49,16.78 -8.23,25.17 -3.88,11.87 -7.76,23.73 -11.64,35.6 -3.22,9.84 -6.34,19.77 -9.67,29.56 -1.65,4.85 -3.53,9.08 -5.93,13.01 4.75,-0.94 9.6,-1.23 14.79,-0.97 3.43,0.17 6.87,0.35 10.3,0.52 19.56,0.98 39.12,1.97 58.68,2.95 14.05,0.71 28.1,1.41 42.14,2.12 -3.38,4.15 -6.75,8.3 -10.13,12.45 -5.57,6.85 -11.14,13.7 -16.71,20.54 -7.88,9.69 -15.76,19.37 -23.63,29.06 -6.53,8.03 -13.01,16.18 -19.63,24.13 -0.44,0.53 -0.88,1.05 -1.32,1.55 2.02,-0.15 4.07,-0.23 6.13,-0.23 13.83,0.04 25.69,3.12 37.98,9.35 4.41,2.23 8.82,4.47 13.22,6.7 25.11,12.72 50.22,25.44 75.33,38.16 18.03,9.13 36.07,18.27 54.1,27.4 -6.86,3.48 -13.72,6.95 -20.57,10.43 -11.32,5.74 -22.63,11.47 -33.95,17.21 -16,8.11 -32,16.23 -48.01,24.34 -13.26,6.73 -26.54,13.64 -39.87,20.21 -12.73,6.27 -23.99,9.34 -38.24,9.41 -1.47,0 -2.94,-0.04 -4.39,-0.12l0.16 0.2c2.15,2.69 4.29,5.37 6.44,8.06 12.22,15.3 24.45,30.6 36.67,45.9 8.78,10.99 17.56,21.98 26.34,32.97 -5.35,0.22 -10.69,0.44 -16.04,0.66 -8.82,0.37 -17.64,0.73 -26.46,1.1 -12.47,0.52 -24.95,1.03 -37.42,1.55 -10.34,0.43 -20.74,0.98 -31.08,1.29 -3.91,0.12 -7.52,-0.02 -11.03,-0.48 1.81,3.3 3.3,6.81 4.55,10.64 1.07,3.27 2.14,6.54 3.21,9.8 6.1,18.61 12.19,37.22 18.29,55.84 4.38,13.37 8.76,26.73 13.13,40.1 -5.09,-1.66 -10.17,-3.33 -15.25,-4.99 -8.39,-2.74 -16.78,-5.49 -25.17,-8.23 -11.87,-3.88 -23.73,-7.76 -35.6,-11.64 -9.84,-3.22 -19.77,-6.34 -29.56,-9.67 -4.85,-1.65 -9.08,-3.53 -13.01,-5.93 0.94,4.75 1.23,9.6 0.97,14.79 -0.17,3.43 -0.35,6.87 -0.52,10.3 -0.98,19.56 -1.97,39.12 -2.95,58.68 -0.71,14.05 -1.41,28.1 -2.12,42.14 -4.15,-3.38 -8.3,-6.75 -12.45,-10.13 -6.85,-5.57 -13.7,-11.14 -20.54,-16.71 -9.69,-7.88 -19.37,-15.76 -29.06,-23.63 -8.03,-6.53 -16.18,-13.01 -24.13,-19.63 -0.53,-0.44 -1.05,-0.88 -1.55,-1.32 0.15,2.02 0.23,4.07 0.23,6.13 -0.04,13.83 -3.12,25.69 -9.35,37.98 -2.23,4.41 -4.47,8.82 -6.7,13.22 -12.72,25.11 -25.44,50.22 -38.16,75.33 -9.13,18.03 -18.27,36.07 -27.4,54.1 -3.48,-6.86 -6.95,-13.72 -10.43,-20.57 -5.74,-11.32 -11.47,-22.63 -17.21,-33.95 -8.11,-16 -16.23,-32 -24.34,-48.01 -6.73,-13.26 -13.64,-26.54 -20.21,-39.87 -6.27,-12.73 -9.34,-23.99 -9.41,-38.24 0,-1.47 0.04,-2.94 0.12,-4.39l-0.2 0.16c-2.69,2.15 -5.37,4.29 -8.06,6.44 -15.3,12.22 -30.6,24.45 -45.91,36.67 -10.99,8.78 -21.98,17.56 -32.97,26.34 -0.22,-5.35 -0.44,-10.69 -0.66,-16.04 -0.37,-8.82 -0.73,-17.64 -1.1,-26.46 -0.52,-12.47 -1.03,-24.95 -1.55,-37.42 -0.43,-10.34 -0.98,-20.74 -1.29,-31.07 -0.12,-3.91 0.02,-7.52 0.48,-11.03 -3.3,1.81 -6.81,3.3 -10.64,4.55 -3.27,1.07 -6.54,2.14 -9.8,3.21 -18.61,6.1 -37.22,12.19 -55.84,18.29 -13.37,4.38 -26.73,8.76 -40.1,13.13 1.66,-5.09 3.33,-10.17 4.99,-15.25 2.74,-8.39 5.49,-16.78 8.23,-25.17 3.88,-11.87 7.76,-23.73 11.64,-35.6 3.22,-9.84 6.34,-19.77 9.67,-29.56 1.65,-4.85 3.53,-9.08 5.93,-13.01 -4.75,0.94 -9.6,1.23 -14.79,0.97 -3.43,-0.17 -6.87,-0.35 -10.3,-0.52 -19.56,-0.98 -39.12,-1.97 -58.68,-2.95 -14.05,-0.71 -28.1,-1.41 -42.14,-2.12 3.38,-4.15 6.75,-8.3 10.13,-12.45 5.57,-6.85 11.14,-13.7 16.71,-20.54 7.88,-9.69 15.76,-19.37 23.63,-29.06 6.53,-8.03 13.01,-16.18 19.63,-24.13 0.44,-0.53 0.88,-1.05 1.32,-1.55 -2.02,0.15 -4.07,0.23 -6.13,0.23 -13.83,-0.04 -25.69,-3.12 -37.98,-9.35 -4.41,-2.23 -8.82,-4.47 -13.22,-6.7 -25.11,-12.72 -50.22,-25.44 -75.33,-38.16 -18.03,-9.13 -36.07,-18.27 -54.1,-27.4 6.86,-3.48 13.72,-6.95 20.57,-10.43 11.32,-5.74 22.63,-11.47 33.95,-17.21 16,-8.11 32,-16.23 48.01,-24.34 13.26,-6.73 26.54,-13.64 39.87,-20.21 12.73,-6.27 23.99,-9.34 38.24,-9.41 1.47,0 2.94,0.04 4.39,0.12l-0.16 -0.2c-2.15,-2.69 -4.29,-5.37 -6.44,-8.06 -12.22,-15.3 -24.45,-30.6 -36.67,-45.91 -8.78,-10.99 -17.56,-21.98 -26.34,-32.97 5.35,-0.22 10.69,-0.44 16.04,-0.66 8.82,-0.37 17.64,-0.73 26.46,-1.1 12.47,-0.52 24.95,-1.03 37.42,-1.55 10.34,-0.43 20.74,-0.98 31.07,-1.29 3.91,-0.12 7.52,0.02 11.03,0.48 -1.81,-3.3 -3.3,-6.81 -4.55,-10.64 -1.07,-3.27 -2.14,-6.54 -3.21,-9.8 -6.1,-18.61 -12.19,-37.22 -18.29,-55.84 -4.38,-13.37 -8.76,-26.73 -13.13,-40.1 5.09,1.66 10.17,3.33 15.25,4.99 8.39,2.74 16.78,5.49 25.17,8.23 11.87,3.88 23.73,7.76 35.6,11.64 9.84,3.22 19.77,6.34 29.56,9.67 4.85,1.65 9.08,3.53 13.01,5.93 -0.94,-4.75 -1.23,-9.6 -0.97,-14.79 0.17,-3.43 0.35,-6.87 0.52,-10.3 0.98,-19.56 1.97,-39.12 2.95,-58.68 0.71,-14.05 1.41,-28.1 2.12,-42.14 4.15,3.38 8.3,6.75 12.45,10.13 6.85,5.57 13.7,11.14 20.54,16.71 9.69,7.88 19.37,15.76 29.06,23.63 8.03,6.53 16.18,13.01 24.13,19.63 0.53,0.44 1.05,0.88 1.55,1.32 -0.15,-2.02 -0.23,-4.07 -0.23,-6.13 0.04,-13.83 3.12,-25.69 9.35,-37.98 2.23,-4.41 4.47,-8.82 6.7,-13.22 12.72,-25.11 25.44,-50.22 38.16,-75.33 9.13,-18.03 18.27,-36.07 27.4,-54.1 3.48,6.86 6.95,13.72 10.43,20.57 5.74,11.32 11.47,22.63 17.21,33.95 8.11,16 16.23,32 24.34,48.01 6.73,13.26 13.64,26.54 20.21,39.87 6.27,12.73 9.34,23.99 9.41,38.24zm-229.36 97.91c3.57,17.97 -1.61,37.34 -15.54,51.27 -13.05,13.05 -30.86,18.42 -47.83,16.11 8.4,15.2 9.75,34.05 1.99,51.07 -8.61,18.89 -26.28,30.78 -45.51,32.9 16.18,14.91 26.31,36.28 26.31,60.02 0,24.47 -10.77,46.42 -27.83,61.38 20.15,1.53 38.84,13.79 47.64,33.55 7.9,17.77 5.95,37.42 -3.51,52.83 17.97,-3.57 37.34,1.61 51.27,15.54 13.05,13.05 18.42,30.86 16.11,47.83 15.2,-8.4 34.05,-9.75 51.07,-1.99 18.89,8.61 30.78,26.28 32.9,45.51 14.91,-16.18 36.28,-26.31 60.02,-26.31 24.47,0 46.42,10.77 61.38,27.83 1.53,-20.15 13.79,-38.84 33.55,-47.64 17.77,-7.9 37.42,-5.95 52.83,3.51 -3.57,-17.97 1.61,-37.34 15.54,-51.27 13.05,-13.05 30.86,-18.42 47.83,-16.11 -8.4,-15.2 -9.75,-34.05 -1.99,-51.07 8.61,-18.89 26.28,-30.78 45.51,-32.9 -16.18,-14.91 -26.31,-36.28 -26.31,-60.02 0,-24.47 10.77,-46.42 27.83,-61.38 -20.15,-1.53 -38.84,-13.79 -47.63,-33.55 -7.91,-17.77 -5.95,-37.42 3.5,-52.83 -17.97,3.57 -37.34,-1.61 -51.27,-15.54 -13.05,-13.05 -18.42,-30.86 -16.11,-47.83 -15.2,8.4 -34.05,9.75 -51.07,1.99 -18.89,-8.61 -30.78,-26.28 -32.9,-45.51 -14.91,16.18 -36.28,26.31 -60.02,26.31 -24.47,0 -46.42,-10.77 -61.38,-27.83 -1.53,20.15 -13.79,38.84 -33.55,47.64 -17.77,7.9 -37.42,5.95 -52.83,-3.51z"/>
   <g>
    <g style="clip-path:url(#id1)">
     <image x="335.29" y="335.29" width="604.04" height="604.04" xlink:href="Logo colorida_Images\Logo colorida_ImgID2.png"/>
    </g>
   </g>
   <circle class="fil1" cx="637.31" cy="637.31" r="232.32"/>
   <g>
    <g style="clip-path:url(#id2)">
     <image x="533.27" y="531.83" width="455.69" height="420.88" xlink:href="Logo colorida_Images\Logo colorida_ImgID3.png"/>
    </g>
   </g>
   <g>
    <path class="fil2" d="M822.83 580.75c40.37,-2.66 77.29,9.56 106.03,32.07 -110.76,-16.4 -117.78,59.63 -117.78,59.63 -1.39,70.07 128.67,66.25 129.31,66.23 -9.05,54.43 -42.41,102.02 -87.97,129.66 -0.18,-0.5 -44.7,-122.88 -109.33,-95.69 0,0 -68.06,34.62 -11.87,131.5 -46.77,-27.36 -77.6,-79.09 -77.15,-140.37 0.69,-94.98 76.25,-176.93 168.75,-183.03zm29.6 287.6l-0 -0 -0 -0 0 0 0 0z"/>
    <path class="fil2" d="M673.28 605.94c17.47,11.85 22.02,35.61 10.17,53.07 -11.85,17.46 -35.61,22.02 -53.07,10.17 -5.35,-3.65 -9.13,-7.96 -12.26,-13.61 -1.12,-2.02 -2.24,-4.05 -3.36,-6.07 -6.39,-11.53 -12.77,-23.06 -19.16,-34.59 -4.59,-8.28 -9.17,-16.56 -13.76,-24.84 3.57,0.46 7.14,0.91 10.71,1.37 5.89,0.75 11.79,1.5 17.68,2.26 8.33,1.06 16.67,2.13 25,3.19 6.91,0.88 13.87,1.69 20.76,2.65 6.58,0.92 11.75,2.69 17.29,6.4z"/>
   </g>
  </g>
 </g>
</svg>
