<?xml version="1.0" encoding="UTF-8"?>
<!DOCTYPE svg PUBLIC "-//W3C//DTD SVG 1.1//EN" "http://www.w3.org/Graphics/SVG/1.1/DTD/svg11.dtd">
<!-- Creator: CorelDRAW -->
<svg xmlns="http://www.w3.org/2000/svg" xml:space="preserve" width="34.4847mm" height="34.5851mm" version="1.1" style="shape-rendering:geometricPrecision; text-rendering:geometricPrecision; image-rendering:optimizeQuality; fill-rule:evenodd; clip-rule:evenodd"
viewBox="0 0 656.5 658.41"
 xmlns:xlink="http://www.w3.org/1999/xlink"
 xmlns:xodm="http://www.corel.com/coreldraw/odm/2003">
 <defs>
  <style type="text/css">
   <![CDATA[
    .fil0 {fill:#4B68AE}
   ]]>
  </style>
 </defs>
 <g id="Camada_x0020_1">
  <metadata id="CorelCorpID_0Corel-Layer"/>
  <path class="fil0" d="M283.98 261.39l-31.23 0.42 -1.33 67.82 32.49 -0.06 0.1 164.38 67.15 -0.73 -0.73 -162.95 48.74 -0.72 5.9 -66.73 -51.95 0.22 0.39 -41.71 51.57 -0.51 -0.22 -56.35c-27.23,0.13 -82.88,-5.05 -103.13,15.14 -18.72,18.66 -17.07,56.86 -17.74,81.79z"/>
  <path class="fil0" d="M400.48 658.41c85.09,-0.36 169.87,-1.52 254.98,-0.3 -0.55,-108.88 2.76,-220.35 -0.23,-328.76 -5.46,-197.37 -171.29,-354.88 -372.09,-325.9 -241.98,34.91 -370.23,319.67 -216.11,525.59 85.69,114.49 199.72,129.32 333.45,129.37zm-72.23 -572.2c134.2,0 242.99,108.79 242.99,242.99 0,134.2 -108.79,242.99 -242.99,242.99 -134.2,0 -242.99,-108.79 -242.99,-242.99 0,-134.2 108.79,-242.99 242.99,-242.99z"/>
 </g>
</svg>
