<?xml version="1.0" encoding="UTF-8"?>
<!DOCTYPE svg PUBLIC "-//W3C//DTD SVG 1.1//EN" "http://www.w3.org/Graphics/SVG/1.1/DTD/svg11.dtd">
<!-- Creator: CorelDRAW -->
<svg xmlns="http://www.w3.org/2000/svg" xml:space="preserve" width="14.9813mm" height="15.1573mm" version="1.1" style="shape-rendering:geometricPrecision; text-rendering:geometricPrecision; image-rendering:optimizeQuality; fill-rule:evenodd; clip-rule:evenodd"
viewBox="0 0 373.74 378.13"
 xmlns:xlink="http://www.w3.org/1999/xlink"
 xmlns:xodm="http://www.corel.com/coreldraw/odm/2003">
 <defs>
  <style type="text/css">
   <![CDATA[
    .fil3 {fill:none}
    .fil0 {fill:#FB00D5}
    .fil2 {fill:url(#id3)}
    .fil1 {fill:url(#id4)}
   ]]>
  </style>
   <clipPath id="id0">
    <path d="M186.87 94.68c52.12,0 94.38,42.26 94.38,94.39 0,52.12 -42.26,94.39 -94.38,94.39 -52.13,0 -94.39,-42.26 -94.39,-94.39 0,-52.13 42.26,-94.39 94.39,-94.39zm-83.65 -94.68l167.29 0c56.77,0 103.22,46.45 103.22,103.22l0 171.68c0,56.77 -46.45,103.22 -103.22,103.22l-167.29 0c-56.77,0 -103.22,-46.45 -103.22,-103.22l0 -171.68c0,-56.77 46.45,-103.22 103.22,-103.22zm0.09 36.47l167.11 0c37,0 67.27,30.27 67.27,67.27l0 170.66c0,37 -30.27,67.27 -67.27,67.27l-167.11 0c-37,0 -67.27,-30.27 -67.27,-67.27l0 -170.66c0,-37 30.27,-67.27 67.27,-67.27zm184.38 29.9c12.37,0 22.39,10.02 22.39,22.39 0,12.37 -10.02,22.39 -22.39,22.39 -12.37,0 -22.39,-10.02 -22.39,-22.39 0,-12.37 10.02,-22.39 22.39,-22.39zm-100.83 59.46c34.92,0 63.23,28.31 63.23,63.24 0,34.92 -28.31,63.23 -63.23,63.23 -34.92,0 -63.24,-28.31 -63.24,-63.23 0,-34.92 28.31,-63.24 63.24,-63.24z"/>
   </clipPath>
     <mask id="id1">
  <radialGradient id="id2" gradientUnits="userSpaceOnUse" cx="-142.69" cy="122.06" r="0" fx="-142.69" fy="122.06">
   <stop offset="0" style="stop-opacity:1; stop-color:white"/>
   <stop offset="1" style="stop-opacity:1; stop-color:white"/>
  </radialGradient>
      <rect style="fill:url(#id2)" x="-145.19" y="119.57" width="593.61" height="433.86"/>
     </mask>
  <radialGradient id="id3" gradientUnits="userSpaceOnUse" gradientTransform="matrix(1 -4.14994E-05 -5.22384E-05 0.444189 0 11)" cx="30.4" cy="19.11" r="176.65" fx="30.4" fy="19.11">
   <stop offset="0" style="stop-opacity:1; stop-color:#770BFF"/>
   <stop offset="0.729412" style="stop-opacity:1; stop-color:#B905EA"/>
   <stop offset="1" style="stop-opacity:1; stop-color:#FB00D5"/>
  </radialGradient>
  <radialGradient id="id4" gradientUnits="userSpaceOnUse" gradientTransform="matrix(-0.0966087 -0.81714 1.03862 -0.0881251 -199 495)" cx="145.74" cy="345.07" r="253.11" fx="145.74" fy="345.07">
   <stop offset="0" style="stop-opacity:1; stop-color:#FFCF00"/>
   <stop offset="0.231373" style="stop-opacity:1; stop-color:#FFCF00"/>
   <stop offset="0.741176" style="stop-opacity:1; stop-color:#FF0D15"/>
   <stop offset="0.913725" style="stop-opacity:1; stop-color:#FD0675"/>
   <stop offset="1" style="stop-opacity:1; stop-color:#FB00D5"/>
  </radialGradient>
 </defs>
 <g id="Camada_x0020_1">
  <metadata id="CorelCorpID_0Corel-Layer"/>
  <path class="fil0" d="M186.87 94.68c52.12,0 94.38,42.26 94.38,94.39 0,52.12 -42.26,94.39 -94.38,94.39 -52.13,0 -94.39,-42.26 -94.39,-94.39 0,-52.13 42.26,-94.39 94.39,-94.39zm-83.65 -94.68l167.29 0c56.77,0 103.22,46.45 103.22,103.22l0 171.68c0,56.77 -46.45,103.22 -103.22,103.22l-167.29 0c-56.77,0 -103.22,-46.45 -103.22,-103.22l0 -171.68c0,-56.77 46.45,-103.22 103.22,-103.22zm0.09 36.47l167.11 0c37,0 67.27,30.27 67.27,67.27l0 170.66c0,37 -30.27,67.27 -67.27,67.27l-167.11 0c-37,0 -67.27,-30.27 -67.27,-67.27l0 -170.66c0,-37 30.27,-67.27 67.27,-67.27zm184.38 29.9c12.37,0 22.39,10.02 22.39,22.39 0,12.37 -10.02,22.39 -22.39,22.39 -12.37,0 -22.39,-10.02 -22.39,-22.39 0,-12.37 10.02,-22.39 22.39,-22.39zm-100.83 59.46c34.92,0 63.23,28.31 63.23,63.24 0,34.92 -28.31,63.23 -63.23,63.23 -34.92,0 -63.24,-28.31 -63.24,-63.23 0,-34.92 28.31,-63.24 63.24,-63.24z"/>
  <g style="clip-path:url(#id0)">
   <g id="_2343491369024">
    <path id="_1" class="fil1" style="mask:url(#id1)" d="M151.62 122.06c162.55,0 294.32,96.01 294.32,214.44 0,118.43 -131.77,214.43 -294.32,214.43 -162.54,0 -294.31,-96.01 -294.31,-214.43 0,-118.43 131.77,-214.44 294.31,-214.44z"/>
    <ellipse class="fil2" cx="30.4" cy="19.11" rx="230.26" ry="128.75"/>
   </g>
  </g>
  <path class="fil3" d="M186.87 94.68c52.12,0 94.38,42.26 94.38,94.39 0,52.12 -42.26,94.39 -94.38,94.39 -52.13,0 -94.39,-42.26 -94.39,-94.39 0,-52.13 42.26,-94.39 94.39,-94.39zm-83.65 -94.68l167.29 0c56.77,0 103.22,46.45 103.22,103.22l0 171.68c0,56.77 -46.45,103.22 -103.22,103.22l-167.29 0c-56.77,0 -103.22,-46.45 -103.22,-103.22l0 -171.68c0,-56.77 46.45,-103.22 103.22,-103.22zm0.09 36.47l167.11 0c37,0 67.27,30.27 67.27,67.27l0 170.66c0,37 -30.27,67.27 -67.27,67.27l-167.11 0c-37,0 -67.27,-30.27 -67.27,-67.27l0 -170.66c0,-37 30.27,-67.27 67.27,-67.27zm184.38 29.9c12.37,0 22.39,10.02 22.39,22.39 0,12.37 -10.02,22.39 -22.39,22.39 -12.37,0 -22.39,-10.02 -22.39,-22.39 0,-12.37 10.02,-22.39 22.39,-22.39zm-100.83 59.46c34.92,0 63.23,28.31 63.23,63.24 0,34.92 -28.31,63.23 -63.23,63.23 -34.92,0 -63.24,-28.31 -63.24,-63.23 0,-34.92 28.31,-63.24 63.24,-63.24z"/>
 </g>
</svg>
