<?xml version="1.0" encoding="UTF-8"?>
<!DOCTYPE svg PUBLIC "-//W3C//DTD SVG 1.1//EN" "http://www.w3.org/Graphics/SVG/1.1/DTD/svg11.dtd">
<!-- Creator: CorelDRAW -->
<svg xmlns="http://www.w3.org/2000/svg" xml:space="preserve" width="14.4227mm" height="14.2067mm" version="1.1" style="shape-rendering:geometricPrecision; text-rendering:geometricPrecision; image-rendering:optimizeQuality; fill-rule:evenodd; clip-rule:evenodd"
viewBox="0 0 349.64 344.41"
 xmlns:xlink="http://www.w3.org/1999/xlink"
 xmlns:xodm="http://www.corel.com/coreldraw/odm/2003">
 <defs>
  <style type="text/css">
   <![CDATA[
    .fil0 {fill:#6E3E36}
   ]]>
  </style>
 </defs>
 <g id="Camada_x0020_1">
  <metadata id="CorelCorpID_0Corel-Layer"/>
  <path class="fil0" d="M56.68 0l236.29 0c31.17,0 56.68,25.5 56.68,56.68l0 231.05c0,31.17 -25.5,56.68 -56.68,56.68l-236.29 0c-31.17,0 -56.68,-25.5 -56.68,-56.68l0 -231.05c0,-31.18 25.51,-56.68 56.68,-56.68zm216.12 52.97c12.02,0 21.76,9.74 21.76,21.76 0,12.02 -9.74,21.76 -21.76,21.76 -12.02,0 -21.76,-9.74 -21.76,-21.76 0,-12.02 9.74,-21.76 21.76,-21.76zm-97.98 27.51c50.65,0 91.72,41.06 91.72,91.72 0,50.65 -41.06,91.72 -91.72,91.72 -50.65,0 -91.72,-41.07 -91.72,-91.72 0,-50.65 41.06,-91.72 91.72,-91.72zm0 30.27c33.93,0 61.45,27.51 61.45,61.45 0,33.93 -27.51,61.45 -61.45,61.45 -33.94,0 -61.45,-27.51 -61.45,-61.45 0,-33.94 27.51,-61.45 61.45,-61.45zm-101.65 -86.71l203.29 0c26.82,0 48.76,21.94 48.76,48.76l0 198.79c0,26.82 -21.94,48.76 -48.76,48.76l-203.29 0c-26.82,0 -48.76,-21.94 -48.76,-48.76l0 -198.79c0,-26.82 21.94,-48.76 48.76,-48.76z"/>
 </g>
</svg>
