<?xml version="1.0" encoding="UTF-8"?>
<!DOCTYPE svg PUBLIC "-//W3C//DTD SVG 1.1//EN" "http://www.w3.org/Graphics/SVG/1.1/DTD/svg11.dtd">
<!-- Creator: CorelDRAW -->
<svg xmlns="http://www.w3.org/2000/svg" xml:space="preserve" width="34.4848mm" height="34.5851mm" version="1.1" style="shape-rendering:geometricPrecision; text-rendering:geometricPrecision; image-rendering:optimizeQuality; fill-rule:evenodd; clip-rule:evenodd"
viewBox="0 0 1494.81 1499.15"
 xmlns:xlink="http://www.w3.org/1999/xlink"
 xmlns:xodm="http://www.corel.com/coreldraw/odm/2003">
 <defs>
  <style type="text/css">
   <![CDATA[
    .fil0 {fill:#333333}
   ]]>
  </style>
 </defs>
 <g id="Camada_x0020_1">
  <metadata id="CorelCorpID_0Corel-Layer"/>
  <path class="fil0" d="M536.16 441.67l422.49 0c55.74,0 101.34,45.6 101.34,101.34l0 413.13c0,55.74 -45.6,101.34 -101.34,101.34l-422.49 0c-55.74,0 -101.34,-45.6 -101.34,-101.34l0 -413.13c0,-55.74 45.61,-101.34 101.34,-101.34zm375.7 1057.48c193.73,-0.83 386.78,-3.45 580.58,-0.68 -1.25,-247.91 6.29,-501.73 -0.53,-748.56 -12.42,-449.41 -390.02,-808.03 -847.23,-742.05 -550.96,79.49 -842.99,727.86 -492.06,1196.73 195.11,260.68 454.74,294.46 759.25,294.57zm-164.45 -1302.85c305.56,0 553.27,247.71 553.27,553.28 0,305.56 -247.71,553.27 -553.27,553.27 -305.57,0 -553.28,-247.71 -553.28,-553.27 0,-305.57 247.71,-553.28 553.28,-553.28zm175.19 340.09c21.49,0 38.9,17.42 38.9,38.9 0,21.49 -17.42,38.9 -38.9,38.9 -21.49,0 -38.9,-17.42 -38.9,-38.9 0,-21.49 17.42,-38.9 38.9,-38.9zm-175.19 49.19c90.57,0 163.99,73.43 163.99,164 0,90.57 -73.43,164 -163.99,164 -90.57,0 -164,-73.43 -164,-164 0,-90.57 73.43,-164 164,-164zm0 54.12c60.68,0 109.87,49.19 109.87,109.88 0,60.68 -49.19,109.87 -109.87,109.87 -60.68,0 -109.88,-49.19 -109.88,-109.87 0,-60.68 49.19,-109.88 109.88,-109.88zm-181.75 -155.04l363.49 0c47.96,0 87.19,39.24 87.19,87.19l0 355.44c0,47.96 -39.23,87.19 -87.19,87.19l-363.49 0c-47.95,0 -87.19,-39.23 -87.19,-87.19l0 -355.44c0,-47.95 39.24,-87.19 87.19,-87.19z"/>
 </g>
</svg>
