<?xml version="1.0" encoding="UTF-8"?>
<!DOCTYPE svg PUBLIC "-//W3C//DTD SVG 1.1//EN" "http://www.w3.org/Graphics/SVG/1.1/DTD/svg11.dtd">
<!-- Creator: CorelDRAW -->
<svg xmlns="http://www.w3.org/2000/svg" xml:space="preserve" width="15.661mm" height="15.6867mm" version="1.1" style="shape-rendering:geometricPrecision; text-rendering:geometricPrecision; image-rendering:optimizeQuality; fill-rule:evenodd; clip-rule:evenodd"
viewBox="0 0 752.5 753.73"
 xmlns:xlink="http://www.w3.org/1999/xlink"
 xmlns:xodm="http://www.corel.com/coreldraw/odm/2003">
 <defs>
  <style type="text/css">
   <![CDATA[
    .fil0 {fill:#6E3E36}
   ]]>
  </style>
 </defs>
 <g id="Camada_x0020_1">
  <metadata id="CorelCorpID_0Corel-Layer"/>
  <g id="_2573298105488">
   <path class="fil0" d="M-0 753.73c56.62,-13.32 104.28,-33.46 158.61,-49.78 84.27,-25.32 260.91,114.92 450.91,-46.31 408.33,-346.49 -150.94,-926.54 -516.67,-516.59 -60.66,67.99 -100.15,191.15 -74.51,307.97 15.72,71.64 53.13,83 32.63,147.59 -16.5,51.99 -36.32,101.75 -50.97,157.13zm93.56 -92.97c32.32,-7.36 94.28,-33.49 120.21,-27.91 28.85,6.21 64.61,31.5 115.94,40.6 96.54,17.12 187.9,-16.87 246.27,-68 150.72,-132.01 148.69,-328.44 20.72,-451.99 -138.83,-134.04 -324.83,-112.19 -448.43,14.75 -112.75,115.8 -88.41,240.96 -31.97,363.38 18.49,40.11 -12.48,79.65 -22.75,129.17z"/>
   <path class="fil0" d="M567.09 452.08c-25.28,-11.23 -60.89,-32.56 -93.86,-37.31l-36.73 40.68c-71.63,-3.03 -112.54,-56.71 -142.04,-112.7 21.24,-34.25 38.5,-35.4 15.04,-89.11 -56.95,-130.44 -165.06,7.5 -61.53,144.88 108.45,143.92 307.31,210.21 319.12,53.56z"/>
  </g>
 </g>
</svg>
