<?xml version="1.0" encoding="UTF-8"?>
<!DOCTYPE svg PUBLIC "-//W3C//DTD SVG 1.1//EN" "http://www.w3.org/Graphics/SVG/1.1/DTD/svg11.dtd">
<!-- Creator: CorelDRAW -->
<svg xmlns="http://www.w3.org/2000/svg" xml:space="preserve" width="34.4847mm" height="34.5851mm" version="1.1" style="shape-rendering:geometricPrecision; text-rendering:geometricPrecision; image-rendering:optimizeQuality; fill-rule:evenodd; clip-rule:evenodd"
viewBox="0 0 8636 8661.14"
 xmlns:xlink="http://www.w3.org/1999/xlink"
 xmlns:xodm="http://www.corel.com/coreldraw/odm/2003">
 <defs>
  <style type="text/css">
   <![CDATA[
    .fil0 {fill:#2DA339}
    .fil1 {fill:#2DA339}
   ]]>
  </style>
 </defs>
 <g id="Camada_x0020_1">
  <metadata id="CorelCorpID_0Corel-Layer"/>
  <path class="fil0" d="M2357 6294.78c295.08,-69.44 543.48,-174.37 826.67,-259.47 439.2,-131.98 1359.86,598.95 2350.13,-241.39 2128.2,-1805.9 -786.7,-4829.12 -2692.85,-2692.47 -316.14,354.38 -521.97,996.29 -388.34,1605.13 81.94,373.37 276.93,432.59 170.04,769.22 -86.02,270.97 -189.3,530.31 -265.66,818.98zm487.61 -484.56c168.46,-38.34 491.37,-174.57 626.53,-145.45 150.36,32.38 336.75,164.16 604.29,211.61 503.14,89.25 979.33,-87.95 1283.55,-354.41 785.52,-688.03 774.96,-1711.84 107.99,-2355.77 -723.59,-698.6 -1692.98,-584.75 -2337.19,76.86 -587.66,603.56 -460.79,1255.88 -166.61,1893.9 96.39,209.06 -65.04,415.11 -118.55,673.26z"/>
  <path class="fil0" d="M5312.67 4722.61c-131.75,-58.53 -317.34,-169.72 -489.21,-194.46l-191.45 212.04c-373.32,-15.78 -586.53,-295.58 -740.3,-587.38 110.72,-178.51 200.64,-184.52 78.41,-464.45 -296.81,-679.87 -860.28,39.07 -320.7,755.1 565.25,750.09 1601.7,1095.63 1663.26,279.15z"/>
  <path class="fil1" d="M5268.12 8661.14c1119.25,-4.78 2234.56,-19.93 3354.21,-3.93 -7.24,-1432.28 36.34,-2898.65 -3.06,-4324.72 -71.77,-2596.38 -2253.29,-4668.26 -4894.8,-4287.11 -3183.09,459.26 -4870.26,4205.12 -2842.83,6913.92 1127.21,1506.06 2627.21,1701.2 4386.48,1701.85zm-950.13 -7527.05c1765.36,0 3196.46,1431.11 3196.46,3196.49 0,1765.36 -1431.11,3196.46 -3196.46,3196.46 -1765.38,0 -3196.46,-1431.11 -3196.46,-3196.46 0,-1765.38 1431.08,-3196.49 3196.46,-3196.49z"/>
 </g>
</svg>
