<?xml version="1.0" encoding="UTF-8"?>
<!DOCTYPE svg PUBLIC "-//W3C//DTD SVG 1.1//EN" "http://www.w3.org/Graphics/SVG/1.1/DTD/svg11.dtd">
<!-- Creator: CorelDRAW -->
<svg xmlns="http://www.w3.org/2000/svg" xml:space="preserve" width="34.4847mm" height="34.5851mm" version="1.1" style="shape-rendering:geometricPrecision; text-rendering:geometricPrecision; image-rendering:optimizeQuality; fill-rule:evenodd; clip-rule:evenodd"
viewBox="0 0 1175.75 1179.17"
 xmlns:xlink="http://www.w3.org/1999/xlink"
 xmlns:xodm="http://www.corel.com/coreldraw/odm/2003">
 <defs>
  <style type="text/css">
   <![CDATA[
    .fil0 {fill:#E53E39}
   ]]>
  </style>
 </defs>
 <g id="Camada_x0020_1">
  <metadata id="CorelCorpID_0Corel-Layer"/>
  <path class="fil0" d="M763.31 769.1c-114.84,9.52 -245.7,10.86 -360.31,-1.06 -0.06,-0.2 -17.64,-6.26 -19.6,-7.09 -26.56,-11.34 -40.06,-27.77 -50.72,-54.17l-1.67 -4.13c-11.1,-28.53 -9.7,-163.93 -4.49,-200.26 1.92,-13.39 4.49,-24.29 9.17,-36.99 14.07,-29.8 35.41,-47.02 67.37,-54.46 -0.31,0.07 53.91,-4.63 79.3,-5.84 89.66,-4.15 183.9,-3.47 273.34,4.09 26.48,2.24 44.72,6.7 64.59,26.01 11.63,11.83 18.03,21.89 23.28,37.69 10.88,32.77 10.46,129.34 8.46,164.93 -1.01,17.91 -2.64,51.13 -8.44,67.92 -12.94,37.42 -41.08,59.22 -80.28,63.36zm-76.55 -183.39l-82.6 44.15 -82.6 44.15 0 -88.3 0 -88.3 82.6 44.15 82.6 44.15z"/>
  <path class="fil0" d="M717.23 1179.17c152.38,-0.65 304.23,-2.71 456.66,-0.54 -0.99,-195 4.95,-394.64 -0.42,-588.79 -9.77,-353.48 -306.77,-635.56 -666.4,-583.67 -433.36,62.53 -663.06,572.5 -387.04,941.29 153.46,205.04 357.68,231.61 597.19,231.7zm-129.35 -1024.77c240.34,0 435.18,194.84 435.18,435.19 0,240.34 -194.84,435.18 -435.18,435.18 -240.35,0 -435.19,-194.84 -435.19,-435.18 0,-240.35 194.84,-435.19 435.19,-435.19z"/>
 </g>
</svg>
