<?xml version="1.0" encoding="UTF-8"?>
<!DOCTYPE svg PUBLIC "-//W3C//DTD SVG 1.1//EN" "http://www.w3.org/Graphics/SVG/1.1/DTD/svg11.dtd">
<!-- Creator: CorelDRAW -->
<svg xmlns="http://www.w3.org/2000/svg" xml:space="preserve" width="15.5615mm" height="10.9706mm" version="1.1" style="shape-rendering:geometricPrecision; text-rendering:geometricPrecision; image-rendering:optimizeQuality; fill-rule:evenodd; clip-rule:evenodd"
viewBox="0 0 201.69 142.19"
 xmlns:xlink="http://www.w3.org/1999/xlink"
 xmlns:xodm="http://www.corel.com/coreldraw/odm/2003">
 <defs>
  <style type="text/css">
   <![CDATA[
    .fil0 {fill:#E50F0B}
   ]]>
  </style>
 </defs>
 <g id="Camada_x0020_1">
  <metadata id="CorelCorpID_0Corel-Layer"/>
  <path class="fil0" d="M167.53 139.33c-43.65,3.62 -93.4,4.13 -136.97,-0.4 -0.02,-0.08 -6.7,-2.38 -7.45,-2.7 -10.1,-4.31 -15.23,-10.56 -19.28,-20.59l-0.63 -1.57c-4.22,-10.84 -3.69,-62.32 -1.71,-76.13 0.73,-5.09 1.71,-9.23 3.49,-14.06 5.35,-11.33 13.46,-17.87 25.61,-20.7 -0.12,0.03 20.49,-1.76 30.15,-2.22 34.08,-1.58 69.91,-1.32 103.91,1.55 10.07,0.85 17,2.55 24.55,9.89 4.42,4.5 6.85,8.32 8.85,14.33 4.14,12.46 3.98,49.17 3.22,62.69 -0.38,6.81 -1,19.43 -3.21,25.82 -4.92,14.22 -15.62,22.51 -30.52,24.08zm-29.1 -69.71l-31.4 16.78 -31.4 16.78 0 -33.57 0 -33.57 31.4 16.78 31.4 16.78z"/>
 </g>
</svg>
